<?xml version="1.0" standalone="no"?>
<!DOCTYPE svg PUBLIC "-//W3C//DTD SVG 20010904//EN"
 "http://www.w3.org/TR/2001/REC-SVG-20010904/DTD/svg10.dtd">
<svg version="1.0" xmlns="http://www.w3.org/2000/svg"
 width="300.000000pt" height="252.000000pt" viewBox="0 0 300.000000 252.000000"
 preserveAspectRatio="xMidYMid meet">
<metadata>
Created by potrace 1.10, written by Peter Selinger 2001-2011
</metadata>
<g transform="translate(0.000000,252.000000) scale(0.100000,-0.100000)"
fill="#000000" stroke="none">
<path d="M1372 2173 c-657 -608 -864 -807 -890 -856 l-27 -52 -3 -527 -3 -528
83 0 83 0 -3 485 c-2 315 1 499 8 525 11 41 34 64 520 515 303 281 381 357
375 363 -6 6 -56 -33 -125 -99 -114 -108 -415 -389 -451 -420 -34 -29 -261
-243 -286 -269 -60 -62 -58 -42 -61 -570 -1 -267 -6 -488 -10 -492 -14 -14
-93 -12 -102 1 -4 7 -7 234 -6 505 l1 491 28 56 c21 44 55 83 145 165 64 60
149 138 187 175 39 36 108 101 155 144 47 43 119 110 160 149 41 39 129 121
194 181 66 61 124 115 130 121 22 22 57 35 70 27 19 -11 104 -87 351 -319 134
-124 321 -299 505 -469 103 -96 136 -136 161 -193 18 -41 19 -76 19 -543 l0
-499 -50 0 c-32 0 -52 5 -55 13 -2 6 -6 226 -8 487 -4 454 -5 477 -25 515 -20
40 -63 82 -472 460 -118 110 -233 217 -254 238 -72 71 -178 158 -184 152 -6
-6 19 -32 173 -175 586 -543 715 -667 725 -693 6 -19 10 -209 10 -528 l0 -499
83 0 82 0 -3 522 -2 523 -30 60 c-24 50 -57 86 -202 220 -224 208 -585 544
-716 668 -58 53 -113 97 -123 97 -11 0 -81 -57 -157 -127z"/>
<path d="M1315 1663 c-110 -103 -265 -247 -345 -320 -80 -74 -152 -144 -162
-156 -14 -20 -17 -76 -22 -500 l-6 -477 745 0 746 0 -3 480 -3 481 -75 72
c-41 40 -169 160 -285 266 -115 107 -245 228 -287 270 l-78 76 0 -177 0 -176
26 -6 c46 -12 76 -39 100 -91 l24 -50 -60 -3 c-45 -2 -60 -7 -60 -18 0 -8 -12
-20 -26 -26 -24 -11 -29 -10 -48 15 -19 23 -29 27 -74 27 -29 0 -52 4 -52 9 0
21 30 78 52 98 13 12 38 28 56 36 l32 13 3 172 c1 95 2 172 2 172 0 -1 -90
-85 -200 -187z m165 -21 l0 -108 -38 -21 c-64 -37 -108 -114 -91 -160 5 -15
22 -26 51 -33 24 -6 61 -20 84 -31 50 -23 50 -23 83 0 14 10 44 22 66 25 89
14 99 86 22 161 -23 22 -51 45 -62 51 -18 10 -20 23 -22 113 -1 55 3 104 8
107 11 6 45 -22 164 -135 45 -42 134 -125 200 -186 201 -186 266 -249 276
-267 10 -18 15 -895 6 -905 -7 -6 -1387 -4 -1398 2 -15 10 -11 875 4 901 11
19 111 116 257 249 30 28 126 117 212 198 86 81 162 147 168 147 6 0 10 -39
10 -108z"/>
<path d="M1213 948 c-23 -11 -53 -64 -53 -92 0 -9 -17 -27 -39 -40 -21 -13
-67 -62 -103 -108 -108 -138 -108 -137 -108 -261 0 -60 5 -117 10 -128 26 -48
31 -49 611 -49 516 -1 545 0 569 18 40 30 50 60 50 160 0 109 -5 121 -97 240
-74 94 -99 120 -129 132 -14 6 -25 23 -33 53 -19 76 -42 87 -186 87 -106 0
-126 -3 -147 -20 -25 -19 -25 -19 -64 0 -31 17 -58 20 -149 19 -60 0 -120 -5
-132 -11z m280 -35 c3 -5 8 -34 12 -65 l7 -58 -160 0 c-94 0 -163 4 -167 10
-5 8 5 63 20 108 3 9 41 12 144 12 77 0 142 -3 144 -7z m370 -50 c8 -32 13
-61 11 -65 -7 -11 -334 -10 -334 0 0 5 5 34 11 65 l12 57 142 0 142 0 16 -57z
m-710 -69 c4 -4 -2 -19 -12 -33 -10 -14 -44 -68 -75 -119 l-56 -93 0 -89 0
-90 518 2 517 3 3 83 3 83 -66 109 c-36 60 -70 112 -75 115 -6 4 -10 13 -10
21 0 25 28 15 51 -18 13 -18 54 -72 91 -120 l67 -87 2 -115 c0 -63 -2 -119 -6
-125 -10 -16 -1137 -15 -1153 1 -8 8 -12 49 -12 120 l0 109 77 102 c110 146
120 157 136 141z m572 -37 l160 0 48 -84 c50 -88 55 -102 35 -104 -42 -3 -892
1 -895 5 -3 2 19 45 48 94 l52 90 154 -2 c84 0 161 2 171 6 9 4 28 4 42 1 14
-3 97 -5 185 -6z m-210 -294 l-1 -68 -240 0 -239 0 -3 68 -3 67 244 0 244 0
-2 -67z m506 63 c2 -2 2 -34 1 -70 l-4 -66 -239 0 -239 0 0 70 0 70 238 0
c131 0 241 -2 243 -4z"/>
<path d="M1255 470 c-8 -14 3 -30 21 -30 8 0 14 9 14 20 0 21 -24 28 -35 10z"/>
<path d="M1765 470 c-8 -14 3 -30 21 -30 8 0 14 9 14 20 0 21 -24 28 -35 10z"/>
</g>
</svg>
